Coordinates
version=1
nRows=6
nColumns=63
inDegrees=yes

Units are S.I. units (second, meters, Newtons, ...)
If the header above contains a line with 'inDegrees', this indicates whether rotational values are in degrees (yes) or radians (no).

endheader
time	pelvis_tilt	pelvis_list	pelvis_rotation	pelvis_tx	pelvis_ty	pelvis_tz	hip_flexion_r	hip_adduction_r	hip_rotation_r	knee_angle_r	knee_angle_r_beta	ankle_angle_r	subtalar_angle_r	mtp_angle_r	hip_flexion_l	hip_adduction_l	hip_rotation_l	knee_angle_l	knee_angle_l_beta	ankle_angle_l	subtalar_angle_l	mtp_angle_l	L5_S1_Flex_Ext	L5_S1_Lat_Bending	L5_S1_axial_rotation	L4_L5_Flex_Ext	L4_L5_Lat_Bending	L4_L5_axial_rotation	L3_L4_Flex_Ext	L3_L4_Lat_Bending	L3_L4_axial_rotation	L2_L3_Flex_Ext	L2_L3_Lat_Bending	L2_L3_axial_rotation	L1_L2_Flex_Ext	L1_L2_Lat_Bending	L1_L2_axial_rotation	L1_T12_Flex_Ext	L1_T12_Lat_Bending	L1_T12_axial_rotation	Abs_r3	Abs_r2	Abs_r1	Abs_t1	Abs_t2	neck_flexion	neck_bending	neck_rotation	arm_flex_r	arm_add_r	arm_rot_r	elbow_flex_r	pro_sup_r	wrist_flex_r	wrist_dev_r	arm_flex_l	arm_add_l	arm_rot_l	elbow_flex_l	pro_sup_l	wrist_flex_l	wrist_dev_l
3.350000	-1.520528	2.354902	83.009034	-0.070580	0.870741	0.614101	-6.203175	-4.753540	-3.323021	11.698982	0.204186	27.501777	10.372631	0.000000	-8.283200	2.585197	-23.519495	8.033689	0.140214	31.438683	16.971162	0.000000	-0.662530	-0.384540	-4.725848	-1.230384	-0.511438	-5.021213	-1.088470	-0.934970	-5.021213	-0.757205	-0.934970	-4.135117	-0.615225	-0.784154	-3.839751	-0.378570	-0.595652	-3.544386	-4.732384	-4.349993	-26.283747	0.000000	0.000000	0.510642	0.023058	38.480446	75.836360	32.394276	179.075739	0.082081	1.634415	-69.796749	-24.411263	-11.358229	-30.765009	-32.210329	120.832097	54.249428	-7.398122	28.482066
3.366667	-1.173234	2.169301	83.111272	-0.071925	0.870585	0.614494	-5.970106	-4.440951	-3.374203	11.811455	0.206149	27.361730	10.272269	0.000000	-8.044930	2.224740	-23.553850	8.185344	0.142861	31.471847	16.929411	0.000000	-0.656584	-0.322552	-4.709018	-1.219342	-0.428995	-5.003332	-1.078701	-0.784254	-5.003332	-0.750410	-0.784254	-4.120391	-0.609704	-0.657749	-3.826077	-0.375172	-0.499633	-3.531764	-4.689912	-3.648776	-26.190148	0.000000	0.000000	0.433468	-0.269858	38.432447	77.179626	32.337090	179.106250	0.082713	1.659389	-69.788716	-24.426886	-11.028872	-30.739575	-31.977366	120.076644	60.178974	-7.027453	27.981972
3.383333	-0.843529	1.961636	83.290763	-0.073309	0.870398	0.614834	-5.714253	-4.134737	-3.495619	11.939166	0.208378	27.233873	10.158776	0.000000	-7.768964	1.865716	-23.535777	8.358018	0.145875	31.495795	16.878070	0.000000	-0.648312	-0.262398	-4.695453	-1.203980	-0.348990	-4.988919	-1.065112	-0.637995	-4.988919	-0.740956	-0.637995	-4.108522	-0.602022	-0.535083	-3.815056	-0.370445	-0.406455	-3.521590	-4.630827	-2.968303	-26.114702	0.000000	0.000000	0.372059	-0.505434	38.413263	78.381258	32.309089	179.107517	0.083212	1.668150	-69.779661	-24.440808	-10.576243	-30.782782	-31.742590	119.319463	65.760364	-6.669317	27.462453
3.400000	-0.557258	1.714022	83.518838	-0.074687	0.870161	0.615075	-5.414712	-3.858226	-3.624350	12.075855	0.210763	27.116306	9.981225	0.000000	-7.446211	1.536550	-23.517453	8.532440	0.148919	31.506746	16.866916	0.000000	-0.635398	-0.207215	-4.679277	-1.179997	-0.275596	-4.971732	-1.043895	-0.503822	-4.971732	-0.726196	-0.503822	-4.094368	-0.590030	-0.422552	-3.801913	-0.363066	-0.320976	-3.509458	-4.538583	-2.344056	-26.024736	0.000000	0.000000	0.341677	-0.652019	38.434514	79.372605	32.307343	179.067182	0.083693	1.692303	-69.770544	-24.454095	-9.984615	-30.785198	-31.564330	118.571750	71.577803	-6.494795	27.278787
3.416667	-0.320006	1.434998	83.838469	-0.076072	0.869873	0.615175	-5.093001	-3.616675	-3.823421	12.214593	0.213185	27.022572	9.774846	0.000000	-7.081676	1.243772	-23.400578	8.709249	0.152005	31.526126	16.858130	0.000000	-0.619329	-0.158939	-4.664963	-1.150157	-0.211389	-4.956523	-1.017496	-0.386445	-4.956523	-0.707832	-0.386445	-4.081843	-0.575109	-0.324109	-3.790282	-0.353885	-0.246197	-3.498722	-4.423809	-1.797951	-25.945125	0.000000	0.000000	0.355283	-0.692398	38.446923	80.081127	32.314001	179.046945	0.084054	1.706857	-69.762255	-24.463037	-9.252884	-30.774759	-31.338782	117.862882	76.013258	-6.792386	27.153981
3.433333	-0.137573	1.137516	84.287025	-0.077472	0.869564	0.615126	-4.775443	-3.414361	-4.155058	12.344880	0.215459	26.959381	9.577675	0.000000	-6.684358	0.990978	-23.129316	8.889233	0.155146	31.548739	16.841865	0.000000	-0.601564	-0.119216	-4.657124	-1.117165	-0.158558	-4.948194	-0.988310	-0.289863	-4.948194	-0.687528	-0.289863	-4.074984	-0.558613	-0.243106	-3.783913	-0.343734	-0.184666	-3.492843	-4.296915	-1.348599	-25.901527	0.000000	0.000000	0.399790	-0.622135	38.410983	80.430569	32.319932	179.069502	0.084288	1.703029	-69.755352	-24.465430	-8.403273	-30.754176	-30.980619	117.160589	78.385642	-7.490162	26.766546
